<svg xmlns="http://www.w3.org/2000/svg" viewBox="0 0 600 400" width="600" height="400">
  <defs>
    <linearGradient id="bg2" x1="0%" y1="0%" x2="100%" y2="100%">
      <stop offset="0%" stop-color="#0b1326"/>
      <stop offset="100%" stop-color="#1a1033"/>
    </linearGradient>
    <linearGradient id="brand2" x1="0%" y1="0%" x2="100%" y2="0%">
      <stop offset="0%" stop-color="#a78bfa"/>
      <stop offset="50%" stop-color="#f472b6"/>
      <stop offset="100%" stop-color="#fbbf24"/>
    </linearGradient>
    <radialGradient id="pulse" cx="50%" cy="50%" r="50%">
      <stop offset="0%" stop-color="#8b5cf6" stop-opacity="0.5"/>
      <stop offset="100%" stop-color="#8b5cf6" stop-opacity="0"/>
    </radialGradient>
  </defs>

  <rect width="600" height="400" fill="url(#bg2)"/>
  <circle cx="300" cy="210" r="150" fill="url(#pulse)"/>

  <!-- Teléfono con ondas -->
  <g>
    <circle cx="300" cy="210" r="58" fill="#1e2b3b" stroke="#8b5cf6" stroke-width="2"/>
    <path d="M282 192 q-6 30 22 44 q8 4 12 -2 l6 -9 q3 -5 -2 -8 l-9 -5 q-4 -2 -7 1 l-3 3 q-10 -7 -12 -18 l4 -1 q4 -1 3 -6 l-2 -10 q-1 -6 -7 -5 l-10 2 q-5 2 5 14z" fill="#a78bfa" transform="rotate(8 300 210)"/>
    <path d="M348 180 a54 54 0 0 1 0 60" stroke="#f472b6" stroke-width="5" fill="none" stroke-linecap="round"/>
    <path d="M362 166 a76 76 0 0 1 0 88" stroke="#f472b6" stroke-width="5" fill="none" stroke-linecap="round" opacity="0.6"/>
    <path d="M376 152 a98 98 0 0 1 0 116" stroke="#f472b6" stroke-width="5" fill="none" stroke-linecap="round" opacity="0.3"/>
  </g>

  <!-- Onda de voz inferior -->
  <g fill="#a78bfa">
    <rect x="160" y="316" width="7" height="14" rx="3" opacity="0.5"/>
    <rect x="175" y="308" width="7" height="30" rx="3" opacity="0.7"/>
    <rect x="190" y="300" width="7" height="46" rx="3"/>
    <rect x="205" y="310" width="7" height="26" rx="3" opacity="0.8"/>
    <rect x="220" y="304" width="7" height="38" rx="3"/>
    <rect x="235" y="314" width="7" height="18" rx="3" opacity="0.6"/>
    <rect x="250" y="306" width="7" height="34" rx="3" opacity="0.9"/>
    <rect x="265" y="312" width="7" height="22" rx="3" opacity="0.7"/>
    <rect x="280" y="302" width="7" height="42" rx="3"/>
    <rect x="295" y="316" width="7" height="14" rx="3" opacity="0.5"/>
    <rect x="310" y="308" width="7" height="30" rx="3" opacity="0.8"/>
    <rect x="325" y="300" width="7" height="46" rx="3"/>
    <rect x="340" y="312" width="7" height="22" rx="3" opacity="0.7"/>
    <rect x="355" y="306" width="7" height="34" rx="3" opacity="0.9"/>
    <rect x="370" y="316" width="7" height="14" rx="3" opacity="0.5"/>
    <rect x="385" y="310" width="7" height="26" rx="3" opacity="0.7"/>
    <rect x="400" y="304" width="7" height="38" rx="3"/>
    <rect x="415" y="314" width="7" height="18" rx="3" opacity="0.6"/>
    <rect x="430" y="308" width="7" height="30" rx="3" opacity="0.8"/>
  </g>

  <!-- Título -->
  <text x="60" y="70" font-family="Arial, sans-serif" font-size="34" font-weight="bold" fill="url(#brand2)">Call Bot IA</text>
  <text x="60" y="94" font-family="Arial, sans-serif" font-size="15" fill="#94a3b8">Agente de voz que llama y califica leads</text>

  <!-- Tags -->
  <g font-family="Arial, sans-serif" font-size="12" font-weight="bold">
    <rect x="382" y="52" width="74" height="26" rx="13" fill="#8b5cf622" stroke="#8b5cf6"/>
    <text x="394" y="69" fill="#c4b5fd">Twilio</text>
    <rect x="464" y="52" width="98" height="26" rx="13" fill="#f472b622" stroke="#f472b6"/>
    <text x="475" y="69" fill="#f9a8d4">ElevenLabs</text>
  </g>
</svg>
