<svg xmlns="http://www.w3.org/2000/svg" viewBox="0 0 600 400" width="600" height="400">
  <defs>
    <linearGradient id="bgPO" x1="0%" y1="0%" x2="100%" y2="100%">
      <stop offset="0%" stop-color="#0b1326"/>
      <stop offset="100%" stop-color="#1a1240"/>
    </linearGradient>
    <linearGradient id="brandPO" x1="0%" y1="0%" x2="100%" y2="0%">
      <stop offset="0%" stop-color="#818cf8"/>
      <stop offset="100%" stop-color="#38bdf8"/>
    </linearGradient>
  </defs>

  <rect width="600" height="400" fill="url(#bgPO)"/>

  <!-- App móvil -->
  <rect x="52" y="108" width="118" height="210" rx="16" fill="#131e35" stroke="#818cf8" stroke-width="2"/>
  <!-- Notch -->
  <rect x="96" y="114" width="30" height="6" rx="3" fill="#1e2b3b"/>
  <!-- Orden 1 -->
  <rect x="64" y="134" width="94" height="40" rx="7" fill="#1e2b3b" stroke="#818cf888"/>
  <rect x="72" y="142" width="50" height="7" rx="3" fill="#818cf8"/>
  <rect x="72" y="155" width="36" height="6" rx="3" fill="#475569"/>
  <circle cx="142" cy="154" r="7" fill="#34d39922" stroke="#34d399" stroke-width="1.2"/>
  <text x="138" y="158" font-family="Arial" font-size="8" fill="#34d399">✓</text>
  <!-- Orden 2 -->
  <rect x="64" y="182" width="94" height="40" rx="7" fill="#1e2b3b" stroke="#818cf888"/>
  <rect x="72" y="190" width="60" height="7" rx="3" fill="#818cf8"/>
  <rect x="72" y="203" width="44" height="6" rx="3" fill="#475569"/>
  <circle cx="142" cy="202" r="7" fill="#fbbf2422" stroke="#fbbf24" stroke-width="1.2"/>
  <text x="139" y="206" font-family="Arial" font-size="8" fill="#fbbf24">!</text>
  <!-- Orden 3 -->
  <rect x="64" y="230" width="94" height="40" rx="7" fill="#1e2b3b" stroke="#818cf888"/>
  <rect x="72" y="238" width="45" height="7" rx="3" fill="#818cf8"/>
  <rect x="72" y="251" width="55" height="6" rx="3" fill="#475569"/>
  <circle cx="142" cy="250" r="7" fill="#38bdf822" stroke="#38bdf8" stroke-width="1.2"/>
  <text x="139" y="254" font-family="Arial" font-size="8" fill="#38bdf8">→</text>
  <!-- Botón enviar -->
  <rect x="64" y="284" width="94" height="24" rx="12" fill="#818cf8"/>
  <text x="83" y="300" font-family="Arial, sans-serif" font-size="11" font-weight="bold" fill="#fff">Enviar orden</text>
  <!-- Label móvil -->
  <text x="85" y="336" font-family="Arial, sans-serif" font-size="10" fill="#64748b">Inspector</text>

  <!-- Flecha sincronización -->
  <g stroke="url(#brandPO)" stroke-width="3" fill="none" stroke-linecap="round" stroke-dasharray="4 7">
    <path d="M178 210 q 50 -30 70 0"/>
  </g>
  <polygon points="246,207 252,213 241,216" fill="#38bdf8"/>

  <!-- Backoffice web -->
  <rect x="258" y="130" width="200" height="148" rx="10" fill="#0f1825" stroke="#38bdf8" stroke-width="1.5"/>
  <!-- Barra superior -->
  <rect x="258" y="130" width="200" height="22" rx="10" fill="#1e2b3b"/>
  <rect x="258" y="141" width="200" height="11" fill="#1e2b3b"/>
  <circle cx="271" cy="141" r="4" fill="#ef4444"/>
  <circle cx="284" cy="141" r="4" fill="#fbbf24"/>
  <circle cx="297" cy="141" r="4" fill="#34d399"/>
  <!-- Tabla órdenes -->
  <rect x="268" y="162" width="180" height="10" rx="3" fill="#1e3a5f"/>
  <rect x="268" y="178" width="180" height="9" rx="3" fill="#1e2b3b"/>
  <rect x="268" y="193" width="180" height="9" rx="3" fill="#1e2b3b"/>
  <rect x="268" y="208" width="180" height="9" rx="3" fill="#1e2b3b"/>
  <rect x="268" y="223" width="180" height="9" rx="3" fill="#1e2b3b"/>
  <!-- Indicadores fila -->
  <rect x="272" y="180" width="40" height="5" rx="2" fill="#818cf8"/>
  <rect x="320" y="180" width="30" height="5" rx="2" fill="#475569"/>
  <rect x="360" y="180" width="25" height="5" rx="2" fill="#34d39999"/>
  <rect x="272" y="195" width="40" height="5" rx="2" fill="#818cf8"/>
  <rect x="320" y="195" width="30" height="5" rx="2" fill="#475569"/>
  <rect x="360" y="195" width="25" height="5" rx="2" fill="#fbbf2499"/>
  <rect x="272" y="210" width="40" height="5" rx="2" fill="#818cf8"/>
  <rect x="320" y="210" width="30" height="5" rx="2" fill="#475569"/>
  <rect x="360" y="210" width="25" height="5" rx="2" fill="#34d39999"/>
  <rect x="272" y="225" width="40" height="5" rx="2" fill="#818cf8"/>
  <rect x="320" y="225" width="30" height="5" rx="2" fill="#475569"/>
  <rect x="360" y="225" width="25" height="5" rx="2" fill="#ef444499"/>
  <!-- Label backoffice -->
  <text x="310" y="298" font-family="Arial, sans-serif" font-size="10" fill="#64748b">Administrador</text>

  <!-- Módulo Proveedores -->
  <rect x="476" y="130" width="106" height="148" rx="10" fill="#0f1825" stroke="#818cf8" stroke-width="1.5"/>
  <text x="494" y="152" font-family="Arial, sans-serif" font-size="9" font-weight="bold" fill="#818cf8">Proveedores</text>
  <!-- Proveedor 1 -->
  <rect x="484" y="160" width="90" height="32" rx="6" fill="#1e2b3b"/>
  <rect x="490" y="166" width="50" height="6" rx="3" fill="#38bdf8"/>
  <rect x="490" y="178" width="35" height="5" rx="2" fill="#475569"/>
  <!-- Proveedor 2 -->
  <rect x="484" y="198" width="90" height="32" rx="6" fill="#1e2b3b"/>
  <rect x="490" y="204" width="55" height="6" rx="3" fill="#38bdf8"/>
  <rect x="490" y="216" width="40" height="5" rx="2" fill="#475569"/>
  <!-- Campo distribuidora -->
  <rect x="484" y="236" width="90" height="20" rx="5" fill="#1e2b3b" stroke="#818cf855"/>
  <rect x="490" y="242" width="60" height="5" rx="2" fill="#818cf855"/>
  <!-- Segmentación usuarios -->
  <g>
    <circle cx="496" cy="268" r="8" fill="#818cf822" stroke="#818cf8" stroke-width="1.2"/>
    <text x="492" y="272" font-family="Arial" font-size="8" fill="#818cf8">A</text>
    <circle cx="514" cy="268" r="8" fill="#38bdf822" stroke="#38bdf8" stroke-width="1.2"/>
    <text x="510" y="272" font-family="Arial" font-size="8" fill="#38bdf8">I</text>
    <text x="527" y="272" font-family="Arial, sans-serif" font-size="8" fill="#64748b">roles</text>
  </g>

  <!-- Título -->
  <text x="52" y="66" font-family="Arial, sans-serif" font-size="28" font-weight="bold" fill="url(#brandPO)">Órdenes de Campo</text>
  <text x="52" y="90" font-family="Arial, sans-serif" font-size="13" fill="#94a3b8">App móvil + Backoffice · Proveedores · Promigas</text>

  <!-- Tags -->
  <g font-family="Arial, sans-serif" font-size="11" font-weight="bold">
    <rect x="52" y="350" width="80" height="24" rx="12" fill="#818cf822" stroke="#818cf8"/>
    <text x="65" y="366" fill="#a5b4fc">Backoffice</text>
    <rect x="142" y="350" width="80" height="24" rx="12" fill="#38bdf822" stroke="#38bdf8"/>
    <text x="152" y="366" fill="#7dd3fc">App móvil</text>
    <rect x="232" y="350" width="100" height="24" rx="12" fill="#34d39922" stroke="#34d399"/>
    <text x="244" y="366" fill="#6ee7b7">Proveedores</text>
  </g>
</svg>
