<svg xmlns="http://www.w3.org/2000/svg" viewBox="0 0 600 400" width="600" height="400">
  <defs>
    <linearGradient id="bgS" x1="0%" y1="0%" x2="100%" y2="100%">
      <stop offset="0%" stop-color="#0b1326"/>
      <stop offset="100%" stop-color="#1e293b"/>
    </linearGradient>
    <linearGradient id="brandS" x1="0%" y1="0%" x2="100%" y2="0%">
      <stop offset="0%" stop-color="#22d3ee"/>
      <stop offset="100%" stop-color="#818cf8"/>
    </linearGradient>
    <radialGradient id="scanGlow" cx="50%" cy="50%" r="55%">
      <stop offset="0%" stop-color="#22d3ee" stop-opacity="0.35"/>
      <stop offset="100%" stop-color="#22d3ee" stop-opacity="0"/>
    </radialGradient>
  </defs>

  <rect width="600" height="400" fill="url(#bgS)"/>
  <circle cx="300" cy="215" r="150" fill="url(#scanGlow)"/>

  <!-- Huella digital estilizada -->
  <g stroke="url(#brandS)" stroke-width="6" fill="none" stroke-linecap="round">
    <path d="M300 140 a75 75 0 0 1 75 75 c0 22 -3 42 -9 60"/>
    <path d="M300 165 a50 50 0 0 1 50 50 c0 26 -4 48 -12 66"/>
    <path d="M300 190 a25 25 0 0 1 25 25 c0 28 -5 52 -14 70"/>
    <path d="M300 215 c0 26 -4 50 -12 68" opacity="0.9"/>
    <path d="M275 220 a25 25 0 0 1 25 -30" opacity="0.85"/>
    <path d="M250 218 a50 50 0 0 1 30 -48" opacity="0.7"/>
    <path d="M225 215 a75 75 0 0 1 45 -68" opacity="0.5"/>
  </g>

  <!-- Línea de escaneo -->
  <rect x="200" y="212" width="200" height="4" rx="2" fill="#22d3ee" opacity="0.9"/>

  <!-- Check de acceso -->
  <g>
    <circle cx="392" cy="150" r="26" fill="#052e22" stroke="#10b981" stroke-width="3"/>
    <path d="M380 150 l9 9 l16 -18" stroke="#4ade80" stroke-width="5" fill="none" stroke-linecap="round" stroke-linejoin="round"/>
  </g>

  <!-- Título -->
  <text x="60" y="70" font-family="Arial, sans-serif" font-size="34" font-weight="bold" fill="url(#brandS)">Seriasses</text>
  <text x="60" y="94" font-family="Arial, sans-serif" font-size="15" fill="#94a3b8">Control de ingreso y salida con huella</text>

  <!-- Tags -->
  <g font-family="Arial, sans-serif" font-size="12" font-weight="bold">
    <rect x="60" y="330" width="110" height="26" rx="13" fill="#22d3ee22" stroke="#22d3ee"/>
    <text x="72" y="347" fill="#67e8f9">Biometría</text>
    <rect x="178" y="330" width="130" height="26" rx="13" fill="#818cf822" stroke="#818cf8"/>
    <text x="190" y="347" fill="#a5b4fc">Tiempo real</text>
    <rect x="316" y="330" width="110" height="26" rx="13" fill="#10b98122" stroke="#10b981"/>
    <text x="330" y="347" fill="#4ade80">Reportes</text>
  </g>
</svg>
